<svg width="16" height="16" viewBox="0 0 16 16" fill="none" xmlns="http://www.w3.org/2000/svg">
<g clip-path="url(#clip0_48_1314)">
<path d="M12.6667 12.6667C13.0349 12.6667 13.3333 12.3682 13.3333 12C13.3333 11.6318 13.0349 11.3333 12.6667 11.3333C12.2985 11.3333 12 11.6318 12 12C12 12.3682 12.2985 12.6667 12.6667 12.6667Z" fill="#9360BC"/>
<path d="M10.6667 12.6667C11.0349 12.6667 11.3333 12.3682 11.3333 12C11.3333 11.6318 11.0349 11.3333 10.6667 11.3333C10.2985 11.3333 10 11.6318 10 12C10 12.3682 10.2985 12.6667 10.6667 12.6667Z" fill="#9360BC"/>
<path d="M12.6667 8.66666C13.0349 8.66666 13.3333 8.36818 13.3333 7.99999C13.3333 7.63181 13.0349 7.33333 12.6667 7.33333C12.2985 7.33333 12 7.63181 12 7.99999C12 8.36818 12.2985 8.66666 12.6667 8.66666Z" fill="#9360BC"/>
<path d="M10.6667 8.66666C11.0349 8.66666 11.3333 8.36818 11.3333 7.99999C11.3333 7.63181 11.0349 7.33333 10.6667 7.33333C10.2985 7.33333 10 7.63181 10 7.99999C10 8.36818 10.2985 8.66666 10.6667 8.66666Z" fill="#9360BC"/>
<path d="M14.6666 1.33333H1.33329C1.15648 1.33333 0.986912 1.40357 0.861888 1.52859C0.736864 1.65361 0.666626 1.82318 0.666626 1.99999V5.99999C0.666626 6.17681 0.736864 6.34637 0.861888 6.4714C0.986912 6.59642 1.15648 6.66666 1.33329 6.66666H14V9.33333H9.33329C9.15648 9.33333 8.98691 9.40357 8.86189 9.52859C8.73686 9.65361 8.66663 9.82318 8.66663 9.99999C8.66663 10.1768 8.73686 10.3464 8.86189 10.4714C8.98691 10.5964 9.15648 10.6667 9.33329 10.6667H14V13.3333H9.33329C9.15648 13.3333 8.98691 13.4036 8.86189 13.5286C8.73686 13.6536 8.66663 13.8232 8.66663 14C8.66663 14.1768 8.73686 14.3464 8.86189 14.4714C8.98691 14.5964 9.15648 14.6667 9.33329 14.6667H14.6666C14.8434 14.6667 15.013 14.5964 15.138 14.4714C15.2631 14.3464 15.3333 14.1768 15.3333 14V1.99999C15.3333 1.82318 15.2631 1.65361 15.138 1.52859C15.013 1.40357 14.8434 1.33333 14.6666 1.33333ZM1.99996 5.33333V2.66666H14V5.33333H1.99996Z" fill="#9360BC"/>
<path d="M12.6667 4.66666C13.0349 4.66666 13.3333 4.36818 13.3333 3.99999C13.3333 3.63181 13.0349 3.33333 12.6667 3.33333C12.2985 3.33333 12 3.63181 12 3.99999C12 4.36818 12.2985 4.66666 12.6667 4.66666Z" fill="#9360BC"/>
<path d="M10.6667 4.66666C11.0349 4.66666 11.3333 4.36818 11.3333 3.99999C11.3333 3.63181 11.0349 3.33333 10.6667 3.33333C10.2985 3.33333 10 3.63181 10 3.99999C10 4.36818 10.2985 4.66666 10.6667 4.66666Z" fill="#9360BC"/>
<path d="M6.53334 8.86666L3.00001 12.4L2.13334 11.5333C2.0692 11.4609 1.98931 11.4041 1.8998 11.3673C1.81028 11.3305 1.71354 11.3147 1.61698 11.3212C1.52042 11.3276 1.42662 11.3561 1.34278 11.4044C1.25894 11.4528 1.1873 11.5197 1.13334 11.6C1.0365 11.7338 0.99008 11.8975 1.00228 12.0622C1.01448 12.2269 1.08452 12.3819 1.20001 12.5L2.53334 13.8C2.59267 13.8647 2.66479 13.9163 2.74512 13.9516C2.82546 13.9869 2.91225 14.0051 3.00001 14.0051C3.08776 14.0051 3.17456 13.9869 3.2549 13.9516C3.33523 13.9163 3.40735 13.8647 3.46668 13.8L7.46668 9.79999C7.56296 9.67161 7.60971 9.5128 7.59833 9.35273C7.58696 9.19266 7.51822 9.04206 7.40475 8.92858C7.29127 8.81511 7.14068 8.74638 6.9806 8.735C6.82053 8.72362 6.66172 8.77037 6.53334 8.86666Z" fill="#9360BC"/>
</g>
<defs>
<clipPath id="clip0_48_1314">
<rect width="16" height="16" fill="white"/>
</clipPath>
</defs>
</svg>
