<svg width="16" height="16" viewBox="0 0 16 16" fill="none" xmlns="http://www.w3.org/2000/svg">
<g clip-path="url(#clip0_48_1330)">
<path d="M8.03281 6.79503C7.98614 6.7097 7.98935 6.60571 8.04161 6.5233L9.64775 4.00009H8.15602L6.05603 7.73342H7.36858C7.45763 7.73342 7.54059 7.77796 7.59018 7.85183C7.63952 7.92595 7.64911 8.01983 7.61499 8.10196L6.4878 10.8212L9.82033 6.93343H8.26674C8.16936 6.93343 8.07977 6.88008 8.03281 6.79503Z" fill="#9360BC"/>
<path d="M7.99997 2.13345C4.76504 2.13345 2.1333 4.76519 2.1333 8.00012C2.1333 11.2348 4.76504 13.8668 7.99997 13.8668C11.2349 13.8668 13.8666 11.2348 13.8666 8.00012C13.8666 4.76519 11.2349 2.13345 7.99997 2.13345ZM10.6024 6.84011L5.80235 12.4401C5.75034 12.5012 5.67543 12.5334 5.59969 12.5334C5.55222 12.5334 5.50367 12.5206 5.4605 12.494C5.34876 12.4252 5.30342 12.2857 5.35356 12.1646L6.96929 8.26678H5.59997C5.5053 8.26678 5.41783 8.21639 5.36982 8.13451C5.32182 8.05293 5.32102 7.95186 5.3677 7.8692L7.76769 3.60254C7.81491 3.51882 7.90371 3.46681 7.99997 3.46681H10.1333C10.2307 3.46681 10.3203 3.51987 10.3672 3.60495C10.4139 3.69029 10.4106 3.79427 10.3584 3.87669L8.75253 6.40015H10.4C10.5043 6.40015 10.5987 6.46067 10.6421 6.55535C10.6856 6.64971 10.6704 6.76119 10.6024 6.84011Z" fill="#9360BC"/>
<path d="M14.4 0H1.60001C0.717607 0 0 0.717607 0 1.60001V14.4C0 15.2824 0.717607 16 1.60001 16H14.4C15.2824 16 16 15.2824 16 14.4V1.60001C16 0.717607 15.2824 0 14.4 0ZM1.60001 1.06667C1.89468 1.06667 2.13335 1.30562 2.13335 1.60001C2.13335 1.8944 1.89468 2.13335 1.60001 2.13335C1.30534 2.13335 1.06667 1.8944 1.06667 1.60001C1.06667 1.30559 1.30534 1.06667 1.60001 1.06667ZM1.60001 14.9333C1.30534 14.9333 1.06667 14.6944 1.06667 14.4C1.06667 14.1056 1.30534 13.8667 1.60001 13.8667C1.89468 13.8667 2.13335 14.1056 2.13335 14.4C2.13335 14.6944 1.89465 14.9333 1.60001 14.9333ZM7.99998 14.4C4.4712 14.4 1.59998 11.5288 1.59998 7.99998C1.59998 4.47117 4.4712 1.60001 7.99998 1.60001C11.5288 1.60001 14.4 4.4712 14.4 8.00002C14.4 11.5288 11.5288 14.4 7.99998 14.4ZM14.4 14.9333C14.1053 14.9333 13.8667 14.6944 13.8667 14.4C13.8667 14.1056 14.1053 13.8667 14.4 13.8667C14.6947 13.8667 14.9333 14.1056 14.9333 14.4C14.9333 14.6944 14.6947 14.9333 14.4 14.9333ZM14.4 2.13335C14.1053 2.13335 13.8667 1.8944 13.8667 1.60001C13.8667 1.30562 14.1053 1.06667 14.4 1.06667C14.6947 1.06667 14.9333 1.30562 14.9333 1.60001C14.9333 1.8944 14.6947 2.13335 14.4 2.13335Z" fill="#9360BC"/>
</g>
<defs>
<clipPath id="clip0_48_1330">
<rect width="16" height="16" fill="white"/>
</clipPath>
</defs>
</svg>
