<svg width="20" height="20" viewBox="0 0 20 20" fill="none" xmlns="http://www.w3.org/2000/svg">
<path d="M2.35559 1.38687C2.35559 9.20562 3.80872 14.99 10.0437 18.5894C16.1312 15.0744 17.7518 9.22687 17.7518 1.38687C12.735 2.28312 7.67059 2.39 2.35559 1.38687ZM9.63622 16.4319C7.36059 16.3525 3.36809 9.7175 6.54559 6.08625C5.91934 9.73875 7.82809 10.0081 8.75434 8.60187C9.63872 7.26 7.73872 4.74625 11.2137 3.70937C9.35497 5.98 12.7543 11.9769 13.5718 7.77125C15.9831 12.6581 12.0262 16.515 9.63559 16.4319H9.63622ZM12.335 13.4125C12.335 15.1906 11.2843 16.6325 9.98809 16.6325C8.69184 16.6325 7.64122 15.1912 7.64122 13.4125C7.64122 11.6337 8.69184 10.1925 9.98809 10.1925C11.2843 10.1925 12.335 11.6337 12.335 13.4125Z" fill="#9360BC"/>
</svg>
