<svg width="14" height="14" viewBox="0 0 14 14" fill="none" xmlns="http://www.w3.org/2000/svg">
<path fill-rule="evenodd" clip-rule="evenodd" d="M7.7 1.40001C7.7 1.21436 7.62625 1.03631 7.49498 0.905037C7.3637 0.773762 7.18565 0.700012 7 0.700012C6.81435 0.700012 6.6363 0.773762 6.50503 0.905037C6.37375 1.03631 6.3 1.21436 6.3 1.40001V6.81801L3.6211 4.38201C3.55308 4.32015 3.47353 4.27229 3.38701 4.24116C3.30049 4.21004 3.20869 4.19626 3.11684 4.20061C3.02499 4.20497 2.9349 4.22737 2.85172 4.26654C2.76853 4.30571 2.69387 4.36089 2.632 4.42891C2.57014 4.49694 2.52228 4.57648 2.49115 4.663C2.46003 4.74952 2.44625 4.84133 2.4506 4.93318C2.45496 5.02502 2.47736 5.11511 2.51653 5.1983C2.55571 5.28149 2.61088 5.35615 2.6789 5.41801L6.5289 8.91801C6.65778 9.03528 6.82576 9.10026 7 9.10026C7.17425 9.10026 7.34223 9.03528 7.4711 8.91801L11.3211 5.41801C11.4585 5.29307 11.5406 5.11867 11.5494 4.93318C11.5582 4.74768 11.4929 4.56629 11.368 4.42891C11.2431 4.29153 11.0687 4.20941 10.8832 4.20061C10.6977 4.19182 10.5163 4.25707 10.3789 4.38201L7.7 6.81801V1.40001ZM2.1735 7.84281C2.06971 7.76395 1.94595 7.71563 1.81618 7.70331C1.68641 7.69098 1.55577 7.71514 1.43899 7.77306C1.3222 7.83098 1.22391 7.92036 1.15519 8.03113C1.08646 8.1419 1.05003 8.26966 1.05 8.40001V11.1069C1.05051 11.3045 1.09244 11.4997 1.17309 11.68C1.25374 11.8604 1.37131 12.0218 1.51822 12.1538C1.66513 12.2859 1.8381 12.3857 2.02597 12.4467C2.21384 12.5078 2.41242 12.5288 2.6089 12.5083C3.6057 12.4054 5.3809 12.25 7 12.25C8.6702 12.25 10.6736 12.4152 11.7565 12.5181C11.9518 12.5368 12.1488 12.5146 12.3349 12.4527C12.5211 12.3909 12.6923 12.2909 12.8376 12.1592C12.9829 12.0274 13.0991 11.8667 13.1787 11.6874C13.2583 11.5082 13.2996 11.3143 13.3 11.1181V8.40001C13.3 8.21436 13.2263 8.03631 13.095 7.90504C12.9637 7.77376 12.7857 7.70001 12.6 7.70001C12.4144 7.70001 12.2363 7.77376 12.105 7.90504C11.9738 8.03631 11.9 8.21436 11.9 8.40001V11.1188L2.1735 7.84281ZM2.1735 7.84281L11.8979 11.1209C11.8966 11.1224 11.8949 11.1236 11.893 11.1244H11.8888C10.7982 11.0208 8.7395 10.85 7 10.85C5.3088 10.85 3.4762 11.011 2.4654 11.116H2.4591C2.45529 11.1145 2.45209 11.1118 2.45 11.1083V8.40001C2.45017 8.29215 2.42535 8.18571 2.3775 8.08904C2.32965 7.99237 2.25937 7.90809 2.1735 7.84281Z" fill="#6A3892"/>
</svg>
