<svg width="16" height="16" viewBox="0 0 16 16" fill="none" xmlns="http://www.w3.org/2000/svg">
<path d="M4.99999 13.3333H12.6667L14.6667 15.3333V8.33333C14.6667 7.6 14.0667 7 13.3333 7H4.99999C4.26666 7 3.66666 7.6 3.66666 8.33333V12C3.66666 12.7333 4.26666 13.3333 4.99999 13.3333Z" fill="#C387F2"/>
<path d="M9.59999 10.9333H8.39999L8.16665 11.6333H7.43332L8.66665 8.29999H9.29999L10.5333 11.6333H9.79999L9.59999 10.9333ZM8.56665 10.4H9.39999L8.99999 9.13332L8.56665 10.4Z" fill="white"/>
<path d="M11 8.33334H3.33334L1.33334 10.3333V2.66668C1.33334 1.93334 1.93334 1.33334 2.66668 1.33334H11C11.7333 1.33334 12.3333 1.93334 12.3333 2.66668V7.00001C12.3333 7.73334 11.7333 8.33334 11 8.33334Z" fill="#6A3892"/>
<path d="M8.46666 4.73334C8.46666 5.06667 8.39999 5.33334 8.29999 5.56667C8.19999 5.80001 8.06666 6.00001 7.86666 6.13334L8.43333 6.56667L7.99999 6.96667L7.26666 6.40001C7.19999 6.40001 7.09999 6.43334 6.99999 6.43334C6.79999 6.43334 6.59999 6.40001 6.39999 6.33334C6.23333 6.26667 6.06666 6.13334 5.93333 6.00001C5.79999 5.86667 5.69999 5.66667 5.63333 5.46667C5.56666 5.26667 5.53333 5.03334 5.53333 4.76667V4.63334C5.53333 4.36667 5.56666 4.13334 5.63333 3.93334C5.69999 3.73334 5.79999 3.53334 5.93333 3.40001C6.06666 3.26667 6.19999 3.13334 6.39999 3.06667C6.56666 3.00001 6.76666 2.96667 6.99999 2.96667C7.19999 2.96667 7.39999 3.00001 7.59999 3.06667C7.76666 3.13334 7.93333 3.26667 8.06666 3.40001C8.19999 3.53334 8.29999 3.73334 8.36666 3.93334C8.43333 4.13334 8.46666 4.36667 8.46666 4.63334V4.73334ZM7.73333 4.56667C7.73333 4.20001 7.66666 3.93334 7.53333 3.76667C7.39999 3.56667 7.23333 3.50001 6.99999 3.50001C6.76666 3.50001 6.56666 3.60001 6.46666 3.76667C6.33333 3.96667 6.26666 4.23334 6.26666 4.56667V4.73334C6.26666 4.90001 6.29999 5.06667 6.33333 5.20001C6.36666 5.33334 6.39999 5.46667 6.46666 5.53334C6.53333 5.63334 6.59999 5.70001 6.69999 5.73334C6.79999 5.76667 6.89999 5.80001 6.99999 5.80001C7.23333 5.80001 7.43333 5.70001 7.53333 5.53334C7.66666 5.33334 7.73333 5.06667 7.73333 4.70001V4.56667Z" fill="white"/>
</svg>
