<svg width="18" height="18" viewBox="0 0 18 18" fill="none" xmlns="http://www.w3.org/2000/svg">
<g clip-path="url(#clip0_48_1418)">
<path d="M16.875 8.44499V7.875C16.875 3.53251 13.3425 0 9.00002 0C4.65753 0 1.12498 3.53251 1.12498 7.875V8.44499C0.442483 8.95127 0 9.76875 0 10.6875C0 12.2363 1.26 13.5 2.8125 13.5H3.37499V7.875H2.8125C2.48248 7.875 2.16751 7.93125 1.87501 8.03999V7.875C1.87501 3.94498 5.07 0.749989 9.00002 0.749989C12.93 0.749989 16.125 3.94498 16.125 7.875V8.03999C15.8325 7.93125 15.5175 7.875 15.1875 7.875H14.625V13.5H15.1875C15.3788 13.5 15.57 13.4813 15.75 13.4437V15.75C15.75 16.1625 15.4125 16.5 15 16.5H10.8075C10.6537 16.0612 10.2375 15.75 9.75001 15.75H8.62502C8.00628 15.75 7.50004 16.2525 7.50004 16.875C7.50004 17.4937 8.00628 18 8.62502 18H9.75001C10.2375 18 10.6537 17.685 10.8075 17.25H15C15.8288 17.25 16.5 16.575 16.5 15.75V13.17C17.3925 12.7012 18 11.7637 18 10.6875C18 9.76875 17.5575 8.95127 16.875 8.44499Z" fill="#FD8606"/>
</g>
<defs>
<clipPath id="clip0_48_1418">
<rect width="18" height="18" fill="white"/>
</clipPath>
</defs>
</svg>
