<svg width="13" height="13" viewBox="0 0 13 13" fill="none" xmlns="http://www.w3.org/2000/svg">
<g clip-path="url(#clip0_48_1444)">
<path d="M0.0408649 5.77828C0.0613852 5.59557 0.274517 5.45811 0.458807 5.45811C1.05441 5.45811 1.58299 5.10853 1.80467 4.56746C2.03095 4.01341 1.88495 3.36738 1.4412 2.96029C1.30144 2.8325 1.2844 2.61853 1.40157 2.47C1.7065 2.08286 2.05294 1.73312 2.4313 1.43003C2.57933 1.31129 2.79684 1.32782 2.92531 1.47C3.31272 1.89908 4.00867 2.05852 4.54648 1.83414C5.10592 1.59875 5.45904 1.03165 5.42436 0.422957C5.41294 0.231639 5.55282 0.0653953 5.74346 0.0431883C6.22904 -0.0130321 6.71889 -0.0146625 7.20587 0.0393653C7.39409 0.0601668 7.53386 0.222475 7.52762 0.411375C7.50653 1.01411 7.86365 1.5712 8.4177 1.79816C8.94904 2.01523 9.64015 1.85697 10.0268 1.43166C10.1546 1.29156 10.3683 1.27436 10.5173 1.39057C10.9068 1.69624 11.261 2.04621 11.5688 2.43019C11.6887 2.57946 11.671 2.79579 11.5301 2.92403C11.0775 3.33382 10.9316 3.98541 11.1666 4.54593C11.3909 5.08031 11.9457 5.42454 12.5809 5.42454C12.787 5.41791 12.9337 5.55638 12.9564 5.74382C13.0135 6.23198 13.0142 6.72964 12.9592 7.2218C12.9387 7.4053 12.7192 7.54158 12.5329 7.54158C11.9668 7.52718 11.4236 7.87744 11.1954 8.43216C10.9683 8.98621 11.1145 9.63196 11.559 10.0396C11.698 10.1674 11.7158 10.3809 11.5984 10.5292C11.2965 10.914 10.9497 11.2639 10.5703 11.5696C10.4213 11.6896 10.2046 11.6728 10.0755 11.5304C9.68653 11.1003 8.99069 10.9412 8.45508 11.166C7.894 11.4008 7.54105 11.9678 7.57552 12.5767C7.58682 12.768 7.4466 12.9347 7.25663 12.9564C7.00814 12.9855 6.75835 12.9999 6.50778 12.9999C6.26997 12.9999 6.0321 12.9869 5.79423 12.9604C5.60578 12.9396 5.46624 12.7772 5.47259 12.5882C5.49435 11.9857 5.13645 11.4286 4.58308 11.2021C4.04819 10.9836 3.36017 11.1435 2.97332 11.5682C2.84486 11.708 2.63245 11.725 2.4828 11.6092C2.09398 11.3043 1.74041 10.9545 1.43131 10.5695C1.31128 10.4206 1.32831 10.2039 1.47004 10.0755C1.92245 9.66597 2.06913 9.0141 1.83418 8.45415C1.61335 7.92697 1.07914 7.573 0.50457 7.573L0.424175 7.57514C0.237637 7.59026 0.0662203 7.44662 0.0436764 7.25632C-0.0137253 6.7677 -0.0143433 6.2706 0.0408649 5.77828ZM6.49996 10.2472C8.5696 10.2472 10.2473 8.56957 10.2473 6.49998C10.2473 4.4304 8.56955 2.75273 6.49996 2.75273C4.43038 2.75273 2.75265 4.4304 2.75265 6.49998C2.75265 7.20246 2.94633 7.8595 3.2827 8.42137L4.92355 6.78047C4.80475 6.50038 4.74201 6.19673 4.74207 5.88336C4.74207 5.26971 4.98106 4.69284 5.41502 4.25898C5.84888 3.82513 6.42575 3.58619 7.03929 3.58619C7.24404 3.58619 7.44784 3.6134 7.645 3.6671C7.73136 3.69065 7.80197 3.76183 7.82497 3.84835C7.84847 3.93684 7.82199 4.02752 7.75283 4.09673C7.75283 4.09673 6.94276 4.91305 6.67172 5.18403C6.64333 5.21242 6.64338 5.28017 6.64737 5.30457L6.6499 5.32239C6.67723 5.62036 6.72991 5.97803 6.77336 6.11549C6.77921 6.12128 6.78472 6.12617 6.79068 6.13213C6.79692 6.13837 6.80265 6.14439 6.80867 6.15057C6.94793 6.19527 7.31111 6.24857 7.6138 6.27566L7.61375 6.27403L7.62735 6.27746C7.62977 6.27774 7.63427 6.27808 7.64023 6.27808C7.67295 6.27808 7.72107 6.26892 7.76481 6.22523C8.04692 5.94312 8.82524 5.17037 8.82524 5.17037C8.89506 5.10077 8.96669 5.08615 9.01442 5.08615C9.12568 5.08615 9.2253 5.16655 9.25667 5.28186C9.47093 6.07473 9.2438 6.92759 8.66377 7.50768C8.22981 7.94158 7.65287 8.18052 7.03923 8.18052C6.72586 8.18052 6.42221 8.11784 6.14218 7.99904L4.48351 9.65771C5.06584 10.0303 5.75735 10.2472 6.49996 10.2472Z" fill="#6A3892"/>
</g>
<defs>
<clipPath id="clip0_48_1444">
<rect width="13" height="13" fill="white" transform="matrix(-1 0 0 1 13 0)"/>
</clipPath>
</defs>
</svg>
