<svg width="26" height="26" viewBox="0 0 26 26" fill="none" xmlns="http://www.w3.org/2000/svg">
<path fill-rule="evenodd" clip-rule="evenodd" d="M4.33335 11.9167C4.33335 7.7285 7.72853 4.33332 11.9167 4.33332C16.1049 4.33332 19.5 7.7285 19.5 11.9167C19.5 16.1048 16.1049 19.5 11.9167 19.5C7.72853 19.5 4.33335 16.1048 4.33335 11.9167ZM11.9167 2.16666C6.53191 2.16666 2.16669 6.53188 2.16669 11.9167C2.16669 17.3015 6.53191 21.6667 11.9167 21.6667C14.2188 21.6667 16.3345 20.8688 18.0025 19.5345L21.984 23.516C22.407 23.9391 23.093 23.9391 23.516 23.516C23.9391 23.093 23.9391 22.407 23.516 21.984L19.5346 18.0025C20.8688 16.3345 21.6667 14.2187 21.6667 11.9167C21.6667 6.53188 17.3015 2.16666 11.9167 2.16666Z" fill="white"/>
</svg>
