<svg width="22" height="22" viewBox="0 0 22 22" fill="none" xmlns="http://www.w3.org/2000/svg">
<path d="M17.6 15.664V16.28C17.6 17.006 17.006 17.6 16.28 17.6H5.71999C4.99399 17.6 4.39999 17.006 4.39999 16.28V15.664C4.39999 14.058 6.26999 13.09 8.02999 12.32C8.09599 12.298 8.13999 12.276 8.20599 12.232C8.33799 12.166 8.49199 12.166 8.62399 12.254C9.32799 12.716 10.142 12.98 11 12.98C11.858 12.98 12.672 12.716 13.376 12.276C13.508 12.188 13.662 12.188 13.794 12.254C13.86 12.276 13.904 12.298 13.97 12.342C15.73 13.09 17.6 14.058 17.6 15.664Z" fill="#6A3892"/>
<path d="M11 11.66C12.8104 11.66 14.278 10.0348 14.278 8.02999C14.278 6.0252 12.8104 4.39999 11 4.39999C9.18961 4.39999 7.722 6.0252 7.722 8.02999C7.722 10.0348 9.18961 11.66 11 11.66Z" fill="#6A3892"/>
</svg>
