<svg width="19" height="18" viewBox="0 0 19 18" fill="none" xmlns="http://www.w3.org/2000/svg">
<g clip-path="url(#clip0_48_1337)">
<path d="M6.96533 9.59357C6.9653 9.92892 7.0309 10.261 7.15838 10.5708C7.28585 10.8807 7.47271 11.1622 7.70828 11.3993C7.94385 11.6365 8.22352 11.8246 8.53132 11.9529C8.83912 12.0813 9.16901 12.1473 9.50218 12.1473C9.83534 12.1473 10.1652 12.0813 10.473 11.9529C10.7808 11.8246 11.0605 11.6365 11.2961 11.3993C11.5316 11.1622 11.7185 10.8807 11.846 10.5708C11.9734 10.261 12.039 9.92892 12.039 9.59357C12.039 9.25822 11.9734 8.92614 11.846 8.61631C11.7185 8.30648 11.5316 8.02495 11.2961 7.78781C11.0605 7.55067 10.7808 7.36256 10.473 7.23422C10.1652 7.10588 9.83534 7.03983 9.50218 7.03983C9.16901 7.03983 8.83912 7.10588 8.53132 7.23422C8.22352 7.36256 7.94385 7.55067 7.70828 7.78781C7.47271 8.02495 7.28585 8.30648 7.15838 8.61631C7.0309 8.92614 6.9653 9.25822 6.96533 9.59357Z" fill="#9360BC"/>
<path d="M14.9549 17.6049L12.8891 15.8454L13.385 15.2557L14.9166 16.5565L16.2301 15.2364L14.7941 13.5308L14.953 13.2976C15.3998 12.6399 15.7241 11.9059 15.9103 11.1315L15.9754 10.8597L18.2442 10.667V8.79186L16.029 8.59914L15.9754 8.31199C15.8265 7.53147 15.5385 6.78453 15.1253 6.10728L14.9798 5.87023L16.4521 4.12034L15.1387 2.80021L13.4424 4.23983L13.2107 4.07987C12.5576 3.62963 11.8283 3.30309 11.0587 3.11627L10.7888 3.05075L10.5896 0.770878H8.7344L8.54294 3.00064L8.25766 3.0546C7.48284 3.20338 6.74133 3.49266 6.06928 3.90835L5.83187 4.04711L4.09341 2.56702L2.78191 3.89293L4.21212 5.60043L4.04746 5.84133C3.60036 6.4996 3.27598 7.23426 3.09016 8.00942L3.03655 8.28694L0.76584 8.47966V10.3471L2.98103 10.5398L3.03464 10.8289C3.18237 11.6113 3.46974 12.3602 3.88281 13.0394L4.02066 13.2591L2.54833 15.009L3.85983 16.3291L5.33407 15.0745L5.82804 15.6527L3.8292 17.3756L1.52019 15.063L3.09208 13.1916C2.7535 12.5843 2.50272 11.9315 2.3473 11.2529L0 11.0467V7.77045L2.42388 7.56617C2.60923 6.89241 2.88902 6.24868 3.25482 5.65439L1.74228 3.85439L4.05129 1.54176L5.90845 3.12398C6.51197 2.7831 7.16045 2.53005 7.83454 2.37238L8.04132 0H11.2961L11.4991 2.44176C12.1646 2.62803 12.8003 2.90902 13.3869 3.27623L15.1809 1.75375L17.4899 4.07794L15.918 5.94732C16.254 6.55521 16.5028 7.20795 16.657 7.88608L19.0005 8.0788V11.3704L16.5785 11.5728C16.3917 12.2433 16.1113 12.8837 15.7457 13.4749L17.2639 15.2807L14.9549 17.6049Z" fill="#9360BC"/>
<path d="M4.73288 9.61479H3.96704C3.96704 9.47795 3.96704 9.3392 3.98236 9.20044L4.7482 9.25825C4.73671 9.37774 4.73288 9.49723 4.73288 9.61479ZM4.84393 8.58181L4.09532 8.41607C4.15207 8.15417 4.22692 7.89659 4.31933 7.64519L5.0373 7.91693C4.95648 8.13339 4.89184 8.35564 4.84393 8.58181ZM14.1604 8.58181C14.112 8.35975 14.048 8.14142 13.9689 7.92849L14.685 7.65483C14.778 7.90618 14.8535 8.16377 14.9109 8.42571L14.1604 8.58181ZM5.32066 7.30601L4.65055 6.93791C4.77706 6.70596 4.9204 6.48373 5.07942 6.27303L5.69018 6.73556C5.55436 6.9171 5.43091 7.10768 5.32066 7.30601ZM13.6817 7.30601C13.5723 7.10473 13.4488 6.91152 13.3122 6.72785L13.923 6.26339C14.0843 6.47741 14.2302 6.70283 14.3595 6.93791L13.6817 7.30601ZM6.13628 6.21714L5.59445 5.67174C5.78064 5.48454 5.97961 5.31067 6.18989 5.1514L6.64939 5.77003C6.46745 5.9059 6.29593 6.05536 6.13628 6.21714ZM12.8661 6.21714C12.7058 6.05533 12.5336 5.90588 12.3511 5.77003L12.8087 5.1514C13.0185 5.30841 13.2168 5.48037 13.4022 5.66596L12.8661 6.21714ZM7.21994 5.39616L6.85234 4.71971C7.08302 4.59248 7.3223 4.48171 7.5684 4.38823L7.83645 5.11093C7.6244 5.19096 7.41836 5.28628 7.21994 5.39616ZM11.7805 5.39616C11.581 5.28766 11.3744 5.193 11.1621 5.11286L11.4301 4.39016C11.6764 4.48261 11.9157 4.59274 12.1462 4.71971L11.7805 5.39616ZM8.48741 4.92207L8.32467 4.16853C8.58152 4.1131 8.8419 4.07575 9.10391 4.05675L9.15943 4.82763C8.93344 4.84262 8.70884 4.87418 8.48741 4.92207ZM10.5111 4.92207C10.2898 4.87187 10.0652 4.8371 9.83912 4.818L9.89272 4.04712C10.1547 4.0668 10.415 4.10414 10.672 4.1589L10.5111 4.92207ZM15.0392 9.61479H14.2733C14.2733 9.4953 14.2733 9.37581 14.2599 9.25825L15.0258 9.20044C15.0334 9.33727 15.0392 9.47603 15.0392 9.61479ZM9.50215 6.05718C10.4203 6.05769 11.3007 6.42451 11.9507 7.07726C12.6006 7.73001 12.967 8.61547 12.9695 9.53962C12.9695 9.5589 12.912 11.3338 11.4378 13.2495C11.2286 13.5436 11.0826 13.8783 11.0089 14.2323H8.0011C7.93102 13.8782 7.78677 13.5431 7.57797 13.2495C6.0999 11.3338 6.0463 9.5589 6.0463 9.54733C6.0473 8.624 6.41135 7.7386 7.05891 7.08462C7.70646 6.43064 8.58486 6.06126 9.50215 6.05718ZM9.50215 5.28631C8.94617 5.28605 8.39559 5.39609 7.88188 5.61014C7.36818 5.82419 6.90141 6.13804 6.50828 6.53377C6.11514 6.92949 5.80334 7.39932 5.59069 7.91641C5.37804 8.43349 5.26872 8.9877 5.26897 9.54733C5.26897 9.68609 5.36853 11.6538 6.9653 13.7216C7.22186 14.0666 7.30993 14.6024 7.33865 15.0129H11.6599C11.6905 14.6024 11.7824 14.0666 12.0428 13.7216C13.6377 11.6557 13.7392 9.68609 13.7392 9.54733C13.7394 8.98737 13.63 8.43286 13.4171 7.91552C13.2042 7.39818 12.892 6.92818 12.4985 6.5324C12.105 6.13663 11.6377 5.82285 11.1236 5.60903C10.6094 5.39521 10.0584 5.28555 9.50215 5.28631Z" fill="#9360BC"/>
<path d="M7.97278 10.3596L8.73441 10.2787L9.22493 14.961L8.4633 15.0419L7.97278 10.3596ZM9.77939 14.9612L10.2699 10.2791L11.0315 10.36L10.541 15.0419L9.77939 14.9612Z" fill="#9360BC"/>
<path d="M6.75085 14.6775H12.2553V15.4484H6.75085V14.6775ZM6.75085 15.9533H12.2553V16.7242H6.75085V15.9533ZM7.70241 17.2291H11.3019V18H7.70241V17.2291Z" fill="#9360BC"/>
<path d="M7.20459 15.1208H7.97043V16.4505H7.20459V15.1208Z" fill="#9360BC"/>
</g>
<defs>
<clipPath id="clip0_48_1337">
<rect width="19" height="18" fill="white"/>
</clipPath>
</defs>
</svg>
