<svg width="18" height="18" viewBox="0 0 18 18" fill="none" xmlns="http://www.w3.org/2000/svg">
<g clip-path="url(#clip0_48_1328)">
<path d="M15.1875 12.2344C14.7404 12.2366 14.3224 12.3632 13.9675 12.5809L13.9776 12.5752L12.4622 11.1977C12.8695 10.5761 13.1114 9.8145 13.1114 8.99662C13.1114 8.11237 12.8284 7.29394 12.3475 6.62737L12.3559 6.63919L14.0783 4.91681C14.3989 5.09456 14.7809 5.19975 15.187 5.20256H15.1881C16.5083 5.20256 17.5787 4.13212 17.5787 2.81194C17.5787 1.49175 16.5083 0.42131 15.1881 0.42131C13.8679 0.42131 12.7975 1.49175 12.7975 2.81194C12.8003 3.21919 12.906 3.60112 13.0894 3.93412L13.0832 3.92175L11.3609 5.64412C10.7157 5.17162 9.90568 4.88812 9.02986 4.88812C8.54161 4.88812 8.07418 4.97644 7.64218 5.13731L7.66974 5.12831L7.30749 4.47019C7.71586 4.04437 7.9673 3.465 7.9673 2.82712C7.9673 1.51537 6.90361 0.451685 5.59186 0.451685C4.28011 0.451685 3.21643 1.51537 3.21643 2.82712C3.21643 4.13887 4.28011 5.20256 5.59186 5.20256C5.76399 5.20256 5.93218 5.184 6.09418 5.14912L6.07843 5.15194L6.43955 5.80781C5.49174 6.5475 4.88818 7.68937 4.88818 8.973C4.88818 9.31331 4.93093 9.64406 5.0108 9.95962L5.00461 9.93206L4.62943 10.0912C4.19068 9.58275 3.54549 9.26212 2.82549 9.26212C1.51261 9.26212 0.448364 10.3264 0.448364 11.6392C0.448364 12.9521 1.51261 14.0164 2.82549 14.0164C4.13836 14.0164 5.20261 12.9521 5.20261 11.6392C5.20261 11.6347 5.20261 11.6297 5.20261 11.6252C5.19811 11.5357 5.18968 11.4531 5.17674 11.3721L5.17843 11.3856L5.55361 11.2264C6.28655 12.366 7.5488 13.1102 8.98486 13.1102C9.9428 13.1102 10.8231 12.7789 11.5178 12.2248L11.5094 12.231L13.0292 13.6119C12.8841 13.9078 12.7986 14.2554 12.7964 14.6227C12.7964 15.9429 13.8668 17.0139 15.187 17.0139C16.5072 17.0139 17.5776 15.9435 17.5776 14.6233C17.5776 13.3031 16.5072 12.2327 15.187 12.2327L15.1875 12.2344ZM4.60693 2.8125C4.60693 2.26912 5.04793 1.82812 5.5913 1.82812C6.13468 1.82812 6.57568 2.26912 6.57568 2.8125C6.57568 3.35587 6.13468 3.79687 5.5913 3.79687C5.04793 3.79631 4.60749 3.35587 4.60693 2.8125ZM2.81255 12.6112C2.26918 12.6107 1.8293 12.1708 1.8293 11.6274C1.8293 11.0841 2.26974 10.6436 2.81311 10.6436C3.35649 10.6436 3.79636 11.0835 3.79693 11.6269C3.79636 12.1702 3.35593 12.6107 2.81255 12.6112ZM15.1875 1.82812C15.7309 1.82812 16.1719 2.26912 16.1719 2.8125C16.1719 3.35587 15.7309 3.79687 15.1875 3.79687C14.6442 3.79687 14.2032 3.35587 14.2032 2.8125C14.2037 2.26912 14.6442 1.82869 15.1875 1.82812ZM6.29443 9C6.29443 8.99944 6.29443 8.99887 6.29443 8.99831C6.29443 7.50487 7.50493 6.29437 8.99836 6.29437C9.74536 6.29437 10.4215 6.59756 10.9109 7.08694L10.9114 7.0875L10.912 7.08806C11.4014 7.57744 11.7034 8.25356 11.7034 9C11.7034 10.494 10.4924 11.7045 8.99893 11.7045C7.50549 11.7045 6.29443 10.4934 6.29443 9ZM15.1875 15.6094C14.6442 15.6094 14.2032 15.1684 14.2032 14.625C14.2032 14.0816 14.6442 13.6406 15.1875 13.6406C15.7309 13.6406 16.1719 14.0816 16.1719 14.625C16.1714 15.1684 15.7309 15.6088 15.1875 15.6094Z" fill="#9360BC"/>
</g>
<defs>
<clipPath id="clip0_48_1328">
<rect width="18" height="18" fill="white"/>
</clipPath>
</defs>
</svg>
