<svg width="17" height="17" viewBox="0 0 17 17" fill="none" xmlns="http://www.w3.org/2000/svg">
<g clip-path="url(#clip0_48_1290)">
<path d="M15.3772 6.26529L15.3768 3.50318L12.7488 2.65079L11.1272 0.413971L8.5 1.27105L5.87272 0.414028L4.25118 2.65079L1.6232 3.50318L1.6228 6.26535L0 8.5L1.62286 10.7347L1.6232 13.4968L4.25118 14.3492L5.87278 16.586L8.5 15.7289L11.1273 16.586L12.7488 14.3492L15.3768 13.4968L15.3772 10.7346L17 8.5L15.3772 6.26529ZM5.53841 7.71283C5.25503 7.42772 5.09708 7.06887 5.09708 6.6362V6.24889C5.09708 5.81289 5.25417 5.45151 5.53588 5.16475C5.81766 4.87804 6.22647 4.73472 6.74638 4.73472C7.27288 4.73472 7.66947 4.87804 7.95113 5.16475C8.23291 5.45151 8.3662 5.81295 8.3662 6.24889V6.6362C8.3662 7.07225 8.23692 7.43191 7.95515 7.71518C7.67343 7.99867 7.27035 8.14028 6.75056 8.14028C6.22739 8.14034 5.82185 7.99781 5.53841 7.71283ZM7.03108 11.6164L6.24132 11.2189L9.81803 5.4943L10.6079 5.89175L7.03108 11.6164ZM11.8647 10.7563C11.8647 11.1956 11.7275 11.557 11.4475 11.8404C11.1674 12.1237 10.769 12.2653 10.2492 12.2653C9.72604 12.2653 9.31677 12.1229 9.02994 11.8378C8.74335 11.5527 8.59561 11.1922 8.59561 10.7563V10.3689C8.59561 9.93629 8.74318 9.57657 9.02828 9.2898C9.31327 9.00298 9.71829 8.85972 10.238 8.85972C10.7645 8.85972 11.1662 9.00235 11.4462 9.28722C11.7263 9.57238 11.8647 9.9329 11.8647 10.3689V10.7563Z" fill="url(#paint0_linear_48_1290)"/>
<path d="M7.14875 7.05241C7.24097 6.94074 7.27647 6.8016 7.27647 6.63493V6.25004C7.27647 6.08354 7.24006 5.9428 7.14617 5.82781C7.05217 5.71281 6.92341 5.65529 6.74906 5.65529C6.57809 5.65529 6.43339 5.71281 6.33956 5.82781C6.24567 5.9428 6.18677 6.08354 6.18677 6.25004V6.63493C6.18677 6.8016 6.24836 6.94074 6.34219 7.05241C6.43608 7.16396 6.57396 7.21976 6.75181 7.21976C6.92278 7.21976 7.05647 7.16396 7.14875 7.05241Z" fill="url(#paint1_linear_48_1290)"/>
<path d="M10.2406 9.78023C10.0662 9.78023 9.92601 9.83787 9.83224 9.95275C9.73813 10.0677 9.6853 10.2069 9.6853 10.3702V10.7549C9.6853 10.915 9.74489 11.0532 9.85231 11.1699C9.95962 11.2865 10.0934 11.3447 10.2476 11.3447C10.4556 11.3447 10.5935 11.2931 10.6674 11.1897C10.741 11.0865 10.775 10.9416 10.775 10.7549V10.3702C10.775 10.2069 10.7317 10.0677 10.6361 9.95275C10.5405 9.83787 10.4116 9.78023 10.2406 9.78023Z" fill="url(#paint2_linear_48_1290)"/>
</g>
<defs>
<linearGradient id="paint0_linear_48_1290" x1="8.5" y1="0.413971" x2="8.5" y2="16.586" gradientUnits="userSpaceOnUse">
<stop stop-color="#E24642"/>
<stop offset="1" stop-color="#FF8F00"/>
</linearGradient>
<linearGradient id="paint1_linear_48_1290" x1="6.73162" y1="5.65529" x2="6.73162" y2="7.21976" gradientUnits="userSpaceOnUse">
<stop stop-color="#E24642"/>
<stop offset="1" stop-color="#FF8F00"/>
</linearGradient>
<linearGradient id="paint2_linear_48_1290" x1="10.2302" y1="9.78023" x2="10.2302" y2="11.3447" gradientUnits="userSpaceOnUse">
<stop stop-color="#E24642"/>
<stop offset="1" stop-color="#FF8F00"/>
</linearGradient>
<clipPath id="clip0_48_1290">
<rect width="17" height="17" fill="white"/>
</clipPath>
</defs>
</svg>
