<svg width="14" height="14" viewBox="0 0 14 14" fill="none" xmlns="http://www.w3.org/2000/svg">
<g clip-path="url(#clip0_48_1297)">
<path d="M12.8571 0C8.95238 0 5.04762 0 1.14285 0C0.511686 0 0 0.511686 0 1.14285C0 1.59049 0 2.03808 0 2.48571C0 3.11688 0.511686 3.62856 1.14285 3.62856C4.35238 3.62856 7.5619 3.62856 10.7714 3.62856C11.1524 3.62856 11.5333 3.62856 11.9143 3.62856C12.2286 3.62856 12.5429 3.62856 12.8571 3.62856C13.4883 3.62856 14 3.11688 14 2.48571C14 2.03808 14 1.59049 14 1.14285C14 0.511686 13.4883 0 12.8571 0ZM9.6 2.216C9.41065 2.216 9.25713 2.06248 9.25713 1.87314C9.25713 1.68377 9.41065 1.53028 9.6 1.53028C9.78934 1.53028 9.94286 1.68377 9.94286 1.87314C9.94286 2.06248 9.78934 2.216 9.6 2.216ZM10.8571 2.216C10.6678 2.216 10.5143 2.06248 10.5143 1.87314C10.5143 1.68377 10.6678 1.53028 10.8571 1.53028C11.0465 1.53028 11.2 1.68377 11.2 1.87314C11.2 2.06248 11.0465 2.216 10.8571 2.216ZM12.4857 2.58744C12.0912 2.58744 11.7714 2.26763 11.7714 1.87316C11.7714 1.47869 12.0912 1.15889 12.4857 1.15889C12.8802 1.15889 13.2 1.47869 13.2 1.87316C13.2 2.26763 12.8802 2.58744 12.4857 2.58744Z" fill="#9360BC"/>
<path d="M12.8571 8.57143C8.95238 8.57143 5.04764 8.57143 1.14285 8.57143C0.511686 8.57143 0 9.08312 0 9.71428C0 10.1619 0 10.6095 0 11.0571C0 11.6883 0.511686 12.2 1.14285 12.2C3.04763 12.2 4.95236 12.2 6.85714 12.2V12.8571C6.85714 12.8634 6.85819 12.8693 6.85897 12.8754C6.65689 12.9268 6.4982 13.0855 6.44682 13.2875C6.44078 13.2868 6.43481 13.2857 6.42856 13.2857H2.25713C2.17826 13.2857 2.11427 13.3497 2.11427 13.4286C2.11427 13.5075 2.17824 13.5714 2.25713 13.5714H6.42856C6.43481 13.5714 6.44075 13.5704 6.44682 13.5696C6.50973 13.8169 6.73318 14 7 14C7.26682 14 7.49027 13.8169 7.55316 13.5696C7.5592 13.5704 7.56517 13.5714 7.57141 13.5714H11.7428C11.8217 13.5714 11.8857 13.5074 11.8857 13.4286C11.8857 13.3497 11.8217 13.2857 11.7428 13.2857H7.57144C7.56517 13.2857 7.55924 13.2868 7.55318 13.2875C7.50178 13.0854 7.34309 12.9268 7.14103 12.8754C7.14181 12.8694 7.14286 12.8634 7.14286 12.8571V12.2C8.35237 12.2 9.56191 12.2 10.7714 12.2H11.9143C12.2286 12.2 12.5429 12.2 12.8571 12.2C13.4883 12.2 14 11.6883 14 11.0571C14 10.6095 14 10.1619 14 9.71428C14 9.08312 13.4883 8.57143 12.8571 8.57143ZM9.6 10.7874C9.41065 10.7874 9.25713 10.6339 9.25713 10.4446C9.25713 10.2552 9.41065 10.1017 9.6 10.1017C9.78934 10.1017 9.94286 10.2552 9.94286 10.4446C9.94286 10.6339 9.78934 10.7874 9.6 10.7874ZM10.8571 10.7874C10.6678 10.7874 10.5143 10.6339 10.5143 10.4446C10.5143 10.2552 10.6678 10.1017 10.8571 10.1017C11.0465 10.1017 11.2 10.2552 11.2 10.4446C11.2 10.6339 11.0465 10.7874 10.8571 10.7874ZM12.4857 11.1588C12.0912 11.1588 11.7714 10.839 11.7714 10.4446C11.7714 10.0501 12.0912 9.7303 12.4857 9.7303C12.8802 9.7303 13.2 10.0501 13.2 10.4446C13.2 10.839 12.8802 11.1588 12.4857 11.1588Z" fill="#9360BC"/>
<path d="M12.8571 4.28572C8.95238 4.28572 5.04764 4.28572 1.14285 4.28572C0.511686 4.28572 0 4.7974 0 5.42857C0 5.8762 0 6.32379 0 6.77142C0 7.40259 0.511686 7.91428 1.14285 7.91428C4.35238 7.91428 7.5619 7.91428 10.7714 7.91428H11.9143C12.2286 7.91428 12.5429 7.91428 12.8571 7.91428C13.4883 7.91428 14 7.40259 14 6.77142C14 6.32379 14 5.8762 14 5.42857C14 4.7974 13.4883 4.28572 12.8571 4.28572ZM9.6 6.50172C9.41065 6.50172 9.25713 6.3482 9.25713 6.15886C9.25713 5.96949 9.41065 5.81599 9.6 5.81599C9.78934 5.81599 9.94286 5.96949 9.94286 6.15886C9.94286 6.3482 9.78934 6.50172 9.6 6.50172ZM10.8571 6.50172C10.6678 6.50172 10.5143 6.3482 10.5143 6.15886C10.5143 5.96949 10.6678 5.81599 10.8571 5.81599C11.0465 5.81599 11.2 5.96949 11.2 6.15886C11.2 6.3482 11.0465 6.50172 10.8571 6.50172ZM12.4857 6.87315C12.0912 6.87315 11.7714 6.55335 11.7714 6.15888C11.7714 5.76441 12.0912 5.44458 12.4857 5.44458C12.8802 5.44458 13.2 5.76438 13.2 6.15888C13.2 6.55337 12.8802 6.87315 12.4857 6.87315Z" fill="#9360BC"/>
</g>
<defs>
<clipPath id="clip0_48_1297">
<rect width="14" height="14" fill="white"/>
</clipPath>
</defs>
</svg>
