<svg width="18" height="18" viewBox="0 0 18 18" fill="none" xmlns="http://www.w3.org/2000/svg">
<g clip-path="url(#clip0_48_1309)">
<path d="M9 7.01857C11.9903 7.01857 14.4143 6.01599 14.4143 4.77928V2.23924C14.4143 1.00253 11.9903 0 9 0C6.00974 0 3.58569 1.00253 3.58569 2.23924V4.77928C3.58569 6.01599 6.00979 7.01857 9 7.01857Z" fill="#9360BC"/>
<path d="M9 10.9747C11.9903 10.9747 14.4143 9.97214 14.4143 8.73547V6.19543C14.4143 6.13925 14.4092 6.08352 14.3993 6.02837C14.1926 7.18699 11.8543 8.1005 8.99995 8.1005C6.14558 8.1005 3.80737 7.18699 3.6007 6.02837C3.59089 6.08352 3.58569 6.13925 3.58569 6.19543V8.73547C3.58569 9.97214 6.00979 10.9747 9 10.9747Z" fill="#9360BC"/>
<path d="M14.1546 16.6482H10.7826V16.6334C10.7826 16.3877 10.5827 16.1877 10.337 16.1877H9.4457V14.9653C12.2274 14.8715 14.4144 13.9083 14.4144 12.7336V10.1936C14.4144 10.1374 14.4092 10.0817 14.3994 10.0265C14.1926 11.1851 11.8544 12.0986 9.00001 12.0986C6.14564 12.0986 3.80739 11.1851 3.60067 10.0265C3.59086 10.0817 3.58566 10.1374 3.58566 10.1936V12.7336C3.58566 13.9082 5.77258 14.8715 8.55432 14.9653V16.1877H7.66304C7.4173 16.1877 7.21739 16.3876 7.21739 16.6334V16.6482H3.84542C3.59969 16.6482 3.39978 16.8481 3.39978 17.0938C3.39978 17.3396 3.59969 17.5395 3.84542 17.5395H7.21744V17.5544C7.21744 17.8001 7.41734 18 7.66308 18H10.3369C10.5827 18 10.7826 17.8001 10.7826 17.5544V17.5395H14.1546C14.4003 17.5395 14.6002 17.3396 14.6002 17.0938C14.6002 16.8481 14.4003 16.6482 14.1546 16.6482Z" fill="#9360BC"/>
</g>
<defs>
<clipPath id="clip0_48_1309">
<rect width="18" height="18" fill="white"/>
</clipPath>
</defs>
</svg>
