<svg width="20" height="20" viewBox="0 0 20 20" fill="none" xmlns="http://www.w3.org/2000/svg">
<path d="M2.50004 10C2.50004 11.8372 3.99048 13.3333 5.82903 13.3333H14.1711C16.0069 13.3333 17.5 11.8409 17.5 10C17.5 8.1628 16.0096 6.66667 14.1711 6.66667H5.82903C3.99314 6.66667 2.50004 8.15905 2.50004 10ZM0.833374 10C0.833374 7.23978 3.07146 5 5.82903 5H14.1711C16.9296 5 19.1667 7.2418 19.1667 10C19.1667 12.7602 16.9286 15 14.1711 15H5.82903C3.07052 15 0.833374 12.7582 0.833374 10ZM5.83337 10.8333C6.29361 10.8333 6.66671 10.4602 6.66671 10C6.66671 9.53976 6.29361 9.16667 5.83337 9.16667C5.37314 9.16667 5.00004 9.53976 5.00004 10C5.00004 10.4602 5.37314 10.8333 5.83337 10.8333ZM5.83337 12.5C4.45266 12.5 3.33337 11.3807 3.33337 10C3.33337 8.61929 4.45266 7.5 5.83337 7.5C7.21409 7.5 8.33337 8.61929 8.33337 10C8.33337 11.3807 7.21409 12.5 5.83337 12.5Z" fill="#9360BC"/>
</svg>
