<svg width="20" height="20" viewBox="0 0 20 20" fill="none" xmlns="http://www.w3.org/2000/svg">
<path fill-rule="evenodd" clip-rule="evenodd" d="M2.33933 9.00633C6.57001 4.77567 13.4293 4.77567 17.66 9.00633C17.9854 9.33175 18.5131 9.33175 18.8385 9.00633C19.1639 8.68092 19.1639 8.15327 18.8385 7.82783C13.9569 2.94627 6.04237 2.94627 1.16082 7.82783C0.83539 8.15327 0.83539 8.68092 1.16082 9.00633C1.48626 9.33175 2.0139 9.33175 2.33933 9.00633ZM4.69636 11.3633C7.62529 8.43442 12.374 8.43442 15.303 11.3633C15.6284 11.6888 16.156 11.6888 16.4815 11.3633C16.8069 11.0379 16.8069 10.5103 16.4815 10.1848C12.9017 6.60505 7.09766 6.60505 3.51785 10.1848C3.19241 10.5103 3.19241 11.0379 3.51785 11.3633C3.84328 11.6888 4.37092 11.6888 4.69636 11.3633ZM7.05338 13.7204C8.68058 12.0932 11.3187 12.0932 12.9459 13.7204C13.2714 14.0458 13.799 14.0458 14.1244 13.7204C14.4499 13.3949 14.4499 12.8673 14.1244 12.5419C11.8464 10.2638 8.15292 10.2638 5.87486 12.5419C5.54943 12.8673 5.54943 13.3949 5.87486 13.7204C6.20031 14.0458 6.72794 14.0458 7.05338 13.7204ZM8.23175 14.8989C9.20808 13.9226 10.791 13.9226 11.7672 14.8989C12.0927 15.2243 12.0927 15.752 11.7672 16.0774L10.5887 17.2559C10.2633 17.5813 9.73567 17.5813 9.41025 17.2559L8.23175 16.0774C7.90631 15.752 7.90631 15.2243 8.23175 14.8989Z" fill="#9360BC"/>
</svg>
